{"title":"Lock,Stock and Two Smoking Barrels.[x264](AC3)Nordic_sub.mkv","uid":5219689,"size":1734778130,"categoryP":"video","categoryS":"movies","magnet":"?xt=urn:btih:268f28d5ba5ff1de6b0e61958e7277d1776a3996&amp;dn=Lock%2CStock+and+Two+Smoking+Barrels.%5Bx264%5D%28AC3%29Nordic_sub.mkv&amp;tr=udp%3A%2F%2Ftracker.openbittorrent.com%3A80&amp;tr=udp%3A%2F%2Fopen.demonii.com%3A1337&amp;tr=udp%3A%2F%2Ftracker.coppersurfer.tk%3A6969&amp;tr=udp%3A%2F%2Fexodus.desync.com%3A6969","seeders":0,"leechers":0,"uploader":"Zen_Bud","files":-1,"time":1260886558,"description":"General\nComplete name                    : Lock, Stock and Two Smoking Barrels.mkv\nFormat                           : Matroska\nFile size                        : 1.62 GiB\nDuration                         : 1h 42mn\nOverall bit rate                 : 2 255 Kbps\n\n\nVideo\nID                               : 1\nFormat                           : AVC\n\nDuration                         : 1h 42mn\nBit rate                         : 1 758 Kbps\nWidth                            : 716 pixels\nHeight                           : 552 pixels\nDisplay aspect ratio             : 16/9\nFrame rate                       : 25.000 fps\nResolution                       : 24 bits\nColorimetry                      : 4:2:0\nScan type                        : Progressive\nBits/(Pixel*Frame)               : 0.178\nStream size                      : 1.26 GiB (78%)\nWriting library                  : x264 core 79\n\nAudio\nID                               : 2\nFormat                           : AC-3\nFormat/Info                      : Audio Coding 3\nCodec ID                         : A_AC3\nDuration                         : 1h 42mn\nBit rate mode                    : Constant\nBit rate                         : 448 Kbps\nChannel(s)                       : 6 channels\nChannel positions                : Front: L C R, Surround: L R, LFE\nSampling rate                    : 48.0 KHz\nStream size                      : 329 MiB (20%)\nLanguage                         : English\n\nText #1\nLanguage                         : Danish\n\nText #2\nLanguage                         : Finnish\n\nText #3\nLanguage                         : Norwegian\n\nText #4\nLanguage                         : Swedish","torrent":{"xt":"urn:btih:268f28d5ba5ff1de6b0e61958e7277d1776a3996","amp;dn":"Lock%2CStock+and+Two+Smoking+Barrels.%5Bx264%5D%28AC3%29Nordic_sub.mkv","amp;tr":["udp%3A%2F%2Ftracker.openbittorrent.com%3A80","udp%3A%2F%2Fopen.demonii.com%3A1337","udp%3A%2F%2Ftracker.coppersurfer.tk%3A6969","udp%3A%2F%2Fexodus.desync.com%3A6969"],"infoHash":"268f28d5ba5ff1de6b0e61958e7277d1776a3996","infoHashBuffer":{"type":"Buffer","data":[38,143,40,213,186,95,241,222,107,14,97,149,142,114,119,209,119,106,57,150]},"announce":[],"urlList":[]}}